<mxfile host="Electron" modified="2024-07-01T16:22:59.952Z" agent="Mozilla/5.0 (Windows NT 10.0; Win64; x64) AppleWebKit/537.36 (KHTML, like Gecko) draw.io/24.6.1 Chrome/124.0.6367.207 Electron/30.0.6 Safari/537.36" etag="BzfY_Vdt4NPXSGDUkjcR" version="24.6.1" type="device">
  <diagram name="Pagina-1" id="k0zoStR1MZ2S-sF2Vyuv">
    <mxGraphModel dx="1020" dy="496" grid="1" gridSize="10" guides="1" tooltips="1" connect="1" arrows="1" fold="1" page="1" pageScale="1" pageWidth="827" pageHeight="1169" math="0" shadow="0">
      <root>
        <mxCell id="0" />
        <mxCell id="1" parent="0" />
        <mxCell id="eGM1I4Bx156c_4Tk0_3w-1" value="Prodotto" style="rounded=0;whiteSpace=wrap;html=1;" vertex="1" parent="1">
          <mxGeometry x="220" y="290" width="120" height="60" as="geometry" />
        </mxCell>
        <mxCell id="eGM1I4Bx156c_4Tk0_3w-2" value="AreaUtente" style="rounded=0;whiteSpace=wrap;html=1;" vertex="1" parent="1">
          <mxGeometry x="500" y="190" width="120" height="60" as="geometry" />
        </mxCell>
        <mxCell id="eGM1I4Bx156c_4Tk0_3w-3" value="About" style="rounded=0;whiteSpace=wrap;html=1;" vertex="1" parent="1">
          <mxGeometry x="640" y="190" width="120" height="60" as="geometry" />
        </mxCell>
        <mxCell id="eGM1I4Bx156c_4Tk0_3w-4" value="Negozio" style="rounded=0;whiteSpace=wrap;html=1;" vertex="1" parent="1">
          <mxGeometry x="220" y="190" width="120" height="60" as="geometry" />
        </mxCell>
        <mxCell id="eGM1I4Bx156c_4Tk0_3w-5" value="Register" style="rounded=0;whiteSpace=wrap;html=1;" vertex="1" parent="1">
          <mxGeometry x="80" y="290" width="120" height="60" as="geometry" />
        </mxCell>
        <mxCell id="eGM1I4Bx156c_4Tk0_3w-6" value="Login" style="rounded=0;whiteSpace=wrap;html=1;" vertex="1" parent="1">
          <mxGeometry x="80" y="190" width="120" height="60" as="geometry" />
        </mxCell>
        <mxCell id="eGM1I4Bx156c_4Tk0_3w-7" value="Home" style="rounded=0;whiteSpace=wrap;html=1;" vertex="1" parent="1">
          <mxGeometry x="260" y="100" width="120" height="60" as="geometry" />
        </mxCell>
        <mxCell id="eGM1I4Bx156c_4Tk0_3w-8" value="" style="endArrow=none;html=1;rounded=0;exitX=0.5;exitY=0;exitDx=0;exitDy=0;entryX=0;entryY=0.5;entryDx=0;entryDy=0;" edge="1" parent="1" source="eGM1I4Bx156c_4Tk0_3w-6" target="eGM1I4Bx156c_4Tk0_3w-7">
          <mxGeometry width="50" height="50" relative="1" as="geometry">
            <mxPoint x="390" y="280" as="sourcePoint" />
            <mxPoint x="440" y="230" as="targetPoint" />
          </mxGeometry>
        </mxCell>
        <mxCell id="eGM1I4Bx156c_4Tk0_3w-9" value="" style="endArrow=none;html=1;rounded=0;exitX=0.5;exitY=0;exitDx=0;exitDy=0;entryX=0.5;entryY=1;entryDx=0;entryDy=0;" edge="1" parent="1" source="eGM1I4Bx156c_4Tk0_3w-5" target="eGM1I4Bx156c_4Tk0_3w-6">
          <mxGeometry width="50" height="50" relative="1" as="geometry">
            <mxPoint x="360" y="210" as="sourcePoint" />
            <mxPoint x="410" y="160" as="targetPoint" />
          </mxGeometry>
        </mxCell>
        <mxCell id="eGM1I4Bx156c_4Tk0_3w-10" value="" style="endArrow=none;html=1;rounded=0;exitX=0.5;exitY=0;exitDx=0;exitDy=0;entryX=0.5;entryY=1;entryDx=0;entryDy=0;" edge="1" parent="1" source="eGM1I4Bx156c_4Tk0_3w-4" target="eGM1I4Bx156c_4Tk0_3w-7">
          <mxGeometry width="50" height="50" relative="1" as="geometry">
            <mxPoint x="390" y="280" as="sourcePoint" />
            <mxPoint x="440" y="230" as="targetPoint" />
          </mxGeometry>
        </mxCell>
        <mxCell id="eGM1I4Bx156c_4Tk0_3w-11" value="Carrello" style="rounded=0;whiteSpace=wrap;html=1;" vertex="1" parent="1">
          <mxGeometry x="360" y="190" width="120" height="60" as="geometry" />
        </mxCell>
        <mxCell id="eGM1I4Bx156c_4Tk0_3w-12" value="" style="endArrow=none;html=1;rounded=0;entryX=0.5;entryY=1;entryDx=0;entryDy=0;exitX=0.5;exitY=0;exitDx=0;exitDy=0;" edge="1" parent="1" source="eGM1I4Bx156c_4Tk0_3w-1" target="eGM1I4Bx156c_4Tk0_3w-4">
          <mxGeometry width="50" height="50" relative="1" as="geometry">
            <mxPoint x="230" y="260" as="sourcePoint" />
            <mxPoint x="280" y="210" as="targetPoint" />
          </mxGeometry>
        </mxCell>
        <mxCell id="eGM1I4Bx156c_4Tk0_3w-13" value="Pagamento" style="rounded=0;whiteSpace=wrap;html=1;" vertex="1" parent="1">
          <mxGeometry x="360" y="290" width="120" height="60" as="geometry" />
        </mxCell>
        <mxCell id="eGM1I4Bx156c_4Tk0_3w-14" value="" style="endArrow=none;html=1;rounded=0;exitX=0.5;exitY=0;exitDx=0;exitDy=0;entryX=0.5;entryY=1;entryDx=0;entryDy=0;" edge="1" parent="1" source="eGM1I4Bx156c_4Tk0_3w-13" target="eGM1I4Bx156c_4Tk0_3w-11">
          <mxGeometry width="50" height="50" relative="1" as="geometry">
            <mxPoint x="390" y="280" as="sourcePoint" />
            <mxPoint x="440" y="230" as="targetPoint" />
          </mxGeometry>
        </mxCell>
        <mxCell id="eGM1I4Bx156c_4Tk0_3w-16" value="" style="endArrow=none;html=1;rounded=0;exitX=0.75;exitY=1;exitDx=0;exitDy=0;entryX=0.5;entryY=0;entryDx=0;entryDy=0;" edge="1" parent="1" source="eGM1I4Bx156c_4Tk0_3w-7" target="eGM1I4Bx156c_4Tk0_3w-11">
          <mxGeometry width="50" height="50" relative="1" as="geometry">
            <mxPoint x="390" y="280" as="sourcePoint" />
            <mxPoint x="440" y="230" as="targetPoint" />
          </mxGeometry>
        </mxCell>
        <mxCell id="eGM1I4Bx156c_4Tk0_3w-24" value="" style="endArrow=none;html=1;rounded=0;exitX=1;exitY=0.5;exitDx=0;exitDy=0;entryX=0.5;entryY=0;entryDx=0;entryDy=0;" edge="1" parent="1" source="eGM1I4Bx156c_4Tk0_3w-7" target="eGM1I4Bx156c_4Tk0_3w-2">
          <mxGeometry width="50" height="50" relative="1" as="geometry">
            <mxPoint x="390" y="280" as="sourcePoint" />
            <mxPoint x="440" y="230" as="targetPoint" />
          </mxGeometry>
        </mxCell>
        <mxCell id="eGM1I4Bx156c_4Tk0_3w-25" value="" style="endArrow=none;html=1;rounded=0;exitX=1;exitY=0.5;exitDx=0;exitDy=0;entryX=0.5;entryY=0;entryDx=0;entryDy=0;" edge="1" parent="1" source="eGM1I4Bx156c_4Tk0_3w-7" target="eGM1I4Bx156c_4Tk0_3w-3">
          <mxGeometry width="50" height="50" relative="1" as="geometry">
            <mxPoint x="390" y="280" as="sourcePoint" />
            <mxPoint x="440" y="230" as="targetPoint" />
          </mxGeometry>
        </mxCell>
        <mxCell id="eGM1I4Bx156c_4Tk0_3w-26" value="AdminPage" style="rounded=0;whiteSpace=wrap;html=1;" vertex="1" parent="1">
          <mxGeometry x="500" y="290" width="120" height="60" as="geometry" />
        </mxCell>
        <mxCell id="eGM1I4Bx156c_4Tk0_3w-27" value="" style="endArrow=none;dashed=1;html=1;dashPattern=1 3;strokeWidth=2;rounded=0;exitX=0.5;exitY=0;exitDx=0;exitDy=0;entryX=0.5;entryY=1;entryDx=0;entryDy=0;" edge="1" parent="1" source="eGM1I4Bx156c_4Tk0_3w-26" target="eGM1I4Bx156c_4Tk0_3w-2">
          <mxGeometry width="50" height="50" relative="1" as="geometry">
            <mxPoint x="390" y="280" as="sourcePoint" />
            <mxPoint x="440" y="230" as="targetPoint" />
          </mxGeometry>
        </mxCell>
        <mxCell id="eGM1I4Bx156c_4Tk0_3w-28" value="Visualizza Ordini" style="rounded=0;whiteSpace=wrap;html=1;" vertex="1" parent="1">
          <mxGeometry x="500" y="380" width="120" height="60" as="geometry" />
        </mxCell>
        <mxCell id="eGM1I4Bx156c_4Tk0_3w-29" value="" style="endArrow=none;html=1;rounded=0;exitX=0.5;exitY=1;exitDx=0;exitDy=0;entryX=0.5;entryY=0;entryDx=0;entryDy=0;" edge="1" parent="1" source="eGM1I4Bx156c_4Tk0_3w-26" target="eGM1I4Bx156c_4Tk0_3w-28">
          <mxGeometry width="50" height="50" relative="1" as="geometry">
            <mxPoint x="390" y="280" as="sourcePoint" />
            <mxPoint x="440" y="230" as="targetPoint" />
          </mxGeometry>
        </mxCell>
      </root>
    </mxGraphModel>
  </diagram>
</mxfile>
